<svg width="33" height="33" viewBox="0 0 33 33" fill="none" xmlns="http://www.w3.org/2000/svg">
<g clip-path="url(#clip0_164_389)">
<path d="M11.4959 1.08541C8.19873 2.22924 5.35522 4.40027 3.38308 7.27962C1.41093 10.159 0.41411 13.5948 0.539022 17.0826C0.663935 20.5703 1.904 23.9261 4.07707 26.657C6.25014 29.3879 9.24168 31.3499 12.6123 32.2549C15.3449 32.96 18.2079 32.991 20.9551 32.3452C23.4438 31.7862 25.7447 30.5904 27.6324 28.875C29.5972 27.0351 31.0233 24.6945 31.7574 22.1049C32.5554 19.2887 32.6974 16.3271 32.1725 13.4475H16.8275V19.8129H25.7143C25.5367 20.8281 25.1561 21.7971 24.5953 22.6618C24.0344 23.5265 23.3049 24.2692 22.4504 24.8454C21.3652 25.5632 20.1419 26.0462 18.8591 26.2634C17.5724 26.5026 16.2527 26.5026 14.9661 26.2634C13.6621 25.9938 12.4284 25.4555 11.3438 24.683C9.60141 23.4496 8.29308 21.6973 7.60555 19.6763C6.9064 17.6174 6.9064 15.3853 7.60555 13.3263C8.09495 11.8832 8.90398 10.5691 9.97227 9.48236C11.1948 8.21585 12.7426 7.31054 14.4457 6.86576C16.1489 6.42098 17.9417 6.45392 19.6273 6.96096C20.9442 7.36518 22.1484 8.07145 23.1439 9.02346C24.1459 8.02658 25.1463 7.02713 26.1449 6.0251C26.6605 5.48627 27.2225 4.97322 27.7304 4.4215C26.2108 3.00734 24.427 1.90695 22.4813 1.18338C18.9382 -0.103133 15.0614 -0.137707 11.4959 1.08541Z" fill="white"/>
<path d="M11.496 1.08544C15.0612 -0.138506 18.938 -0.104842 22.4814 1.18083C24.4274 1.90932 26.2103 3.01501 27.7278 4.43443C27.2122 4.98614 26.6682 5.50177 26.1423 6.03802C25.142 7.03661 24.1425 8.03177 23.1439 9.02349C22.1484 8.07148 20.9442 7.36522 19.6274 6.96099C17.9422 6.45217 16.1495 6.41733 14.4459 6.86029C12.7423 7.30325 11.1936 8.2069 9.96972 9.47208C8.90143 10.5589 8.09239 11.8729 7.603 13.3161L2.25854 9.17817C4.17154 5.38462 7.48376 2.48285 11.496 1.08544Z" fill="#E33629"/>
<path d="M0.840432 13.2774C1.12769 11.8538 1.6046 10.4751 2.2584 9.17822L7.60285 13.3264C6.9037 15.3853 6.9037 17.6174 7.60285 19.6763C5.82223 21.0513 4.04074 22.4332 2.2584 23.822C0.62168 20.564 0.122508 16.852 0.840432 13.2774Z" fill="#F8BD00"/>
<path d="M16.8273 13.4448H32.1723C32.6972 16.3244 32.5552 19.286 31.7572 22.1022C31.0231 24.6918 29.597 27.0324 27.6322 28.8723C25.9075 27.5265 24.175 26.1911 22.4502 24.8453C23.3053 24.2685 24.0352 23.525 24.596 22.6594C25.1569 21.7937 25.5372 20.8238 25.7141 19.8076H16.8273C16.8247 17.6884 16.8273 15.5666 16.8273 13.4448Z" fill="#587DBD"/>
<path d="M2.25586 23.8219C4.0382 22.4469 5.81969 21.065 7.60031 19.6763C8.28921 21.698 9.5994 23.4504 11.3438 24.683C12.4317 25.452 13.668 25.9858 14.9738 26.2505C16.2604 26.4897 17.5801 26.4897 18.8667 26.2505C20.1496 26.0333 21.3729 25.5503 22.458 24.8325C24.1828 26.1783 25.9153 27.5138 27.6401 28.8596C25.7526 30.5759 23.4517 31.7725 20.9627 32.3323C18.2155 32.9781 15.3525 32.9472 12.6199 32.2421C10.4587 31.665 8.43994 30.6477 6.69023 29.254C4.83827 27.7837 3.32567 25.9307 2.25586 23.8219Z" fill="#319F43"/>
</g>
<defs>
<clipPath id="clip0_164_389">
<rect width="33" height="33" fill="white"/>
</clipPath>
</defs>
</svg>
