<svg width="27" height="27" viewBox="0 0 27 27" fill="none" xmlns="http://www.w3.org/2000/svg">
<path d="M25.0525 21.8081H1.94723C1.69164 21.8081 1.43856 21.7578 1.20243 21.66C0.966299 21.5622 0.751746 21.4188 0.57102 21.2381C0.390294 21.0574 0.246934 20.8428 0.149126 20.6067C0.0513178 20.3705 0.000976562 20.1175 0.000976562 19.8619V7.13813C0.000976563 6.62195 0.206027 6.12692 0.57102 5.76192C0.936013 5.39693 1.43105 5.19188 1.94723 5.19188H25.0525C25.3081 5.19188 25.5611 5.24222 25.7973 5.34003C26.0334 5.43784 26.248 5.5812 26.4287 5.76192C26.6094 5.94265 26.7528 6.1572 26.8506 6.39333C26.9484 6.62946 26.9987 6.88254 26.9987 7.13813V19.8596C26.9989 20.1153 26.9486 20.3685 26.8509 20.6048C26.7532 20.841 26.6098 21.0557 26.4291 21.2366C26.2483 21.4174 26.0337 21.5609 25.7975 21.6587C25.5613 21.7566 25.3082 21.8081 25.0525 21.8081ZM6.48998 17.9134V12.8509L9.08647 16.0965L11.6818 12.8509V17.9134H14.2783V9.08775H11.6818L9.08647 12.3334L6.48998 9.08775H3.89348V17.9156L6.48998 17.9134ZM23.8847 13.5H21.2882V9.08663H18.6929V13.5H16.0963L19.99 18.0439L23.8847 13.5Z" fill="url(#paint0_linear_8_1249)"/>
<defs>
<linearGradient id="paint0_linear_8_1249" x1="13.4999" y1="5.19188" x2="13.4999" y2="21.8081" gradientUnits="userSpaceOnUse">
<stop stop-color="#94C5FC"/>
<stop offset="1" stop-color="#5879CE"/>
</linearGradient>
</defs>
</svg>
