<svg width="16" height="16" viewBox="0 0 16 16" fill="none" xmlns="http://www.w3.org/2000/svg">
<path fill-rule="evenodd" clip-rule="evenodd" d="M8.77041 2.23999C8.32308 2.00666 7.71708 2.00333 7.26574 2.23599C5.53708 3.12933 3.96908 4.15266 2.59508 5.28799C2.38241 5.46333 2.23174 5.71866 2.23441 6.01866C2.23708 6.31799 2.39041 6.56933 2.60174 6.74199C3.96441 7.85599 5.53374 8.88066 7.23041 9.76666C7.67841 9.99999 8.28374 10.0033 8.73508 9.77066C10.4637 8.87733 12.0317 7.85399 13.4057 6.71866C13.6184 6.54333 13.7691 6.28799 13.7664 5.98799C13.7637 5.68866 13.6097 5.43733 13.3991 5.26466C12.0364 4.15066 10.4671 3.12599 8.77041 2.23999ZM7.72374 3.12466C7.81572 3.08377 7.9153 3.06281 8.01596 3.06316C8.11661 3.0635 8.21605 3.08514 8.30774 3.12666C9.92708 3.97199 11.4191 4.94466 12.7117 5.99466C11.4117 7.06199 9.92374 8.03133 8.27641 8.88199C8.11641 8.96466 7.85441 8.96399 7.69308 8.87999C6.07374 8.03466 4.58174 7.06199 3.28841 6.01199C4.58908 4.94466 6.07708 3.97533 7.72441 3.12466" fill="#727272"/>
<path d="M14.131 8.46532C14.2012 8.57778 14.2238 8.7135 14.1939 8.84263C14.164 8.97177 14.0841 9.08376 13.9717 9.15398L9.90036 11.696C9.34769 12.0413 8.66236 12.2007 7.99969 12.2007C7.33702 12.2007 6.65169 12.0407 6.09902 11.6967L2.07236 9.18332C1.95982 9.11312 1.87977 9.0011 1.84983 8.87189C1.81988 8.74267 1.8425 8.60686 1.91269 8.49432C1.98288 8.38178 2.09491 8.30173 2.22412 8.27179C2.35333 8.24184 2.48915 8.26446 2.60169 8.33465L6.62836 10.848C6.99102 11.0747 7.48369 11.2007 7.99969 11.2007C8.51502 11.2007 9.00769 11.074 9.37036 10.8473L13.4424 8.30598C13.5548 8.23584 13.6905 8.21322 13.8197 8.24309C13.9488 8.27297 14.0608 8.3529 14.131 8.46532Z" fill="#727272"/>
<path d="M14.1309 10.9686C14.201 11.0811 14.2236 11.2168 14.1938 11.3459C14.1639 11.4751 14.0839 11.5871 13.9715 11.6573L10.4462 13.8599C9.74087 14.2999 8.85953 14.5073 7.99953 14.5073C7.14087 14.5073 6.25953 14.3006 5.55353 13.8606L2.0722 11.6873C1.95966 11.617 1.87965 11.5049 1.84977 11.3756C1.81989 11.2463 1.84258 11.1105 1.91287 10.9979C1.98315 10.8854 2.09526 10.8054 2.22453 10.7755C2.35381 10.7456 2.48966 10.7683 2.6022 10.8386L6.08353 13.0119C6.59887 13.3339 7.2882 13.5073 8.0002 13.5073C8.7122 13.5073 9.40153 13.3339 9.91687 13.0119L13.4422 10.8099C13.4979 10.7751 13.5599 10.7516 13.6248 10.7407C13.6896 10.7299 13.7559 10.7319 13.8199 10.7467C13.8839 10.7615 13.9444 10.7888 13.9979 10.827C14.0513 10.8652 14.0968 10.9135 14.1315 10.9693" fill="#727272"/>
</svg>
