<svg width="16" height="16" viewBox="0 0 16 16" fill="none" xmlns="http://www.w3.org/2000/svg">
<path d="M5.64337 7.52871C6.3987 6.77338 7.71604 6.77338 8.47137 7.52871L8.9427 8.00004L9.88537 7.05738L9.41404 6.58604C8.78537 5.95671 7.94804 5.60938 7.05737 5.60938C6.1667 5.60938 5.32937 5.95671 4.7007 6.58604L3.28604 8.00004C2.66256 8.62602 2.3125 9.47354 2.3125 10.357C2.3125 11.2405 2.66256 12.0881 3.28604 12.714C3.59522 13.0238 3.9626 13.2694 4.36705 13.4367C4.7715 13.604 5.20503 13.6896 5.6427 13.6887C6.08049 13.6897 6.51414 13.6041 6.91871 13.4368C7.32328 13.2695 7.69077 13.0239 8.00004 12.714L8.47137 12.2427L7.5287 11.3L7.05737 11.7714C6.68168 12.1454 6.17315 12.3554 5.64304 12.3554C5.11292 12.3554 4.60439 12.1454 4.2287 11.7714C3.85437 11.3959 3.64417 10.8873 3.64417 10.357C3.64417 9.82682 3.85437 9.31822 4.2287 8.94271L5.64337 7.52871Z" fill="white"/>
<path d="M7.99959 3.28591L7.52826 3.75725L8.47092 4.69991L8.94226 4.22858C9.31794 3.85457 9.82648 3.6446 10.3566 3.6446C10.8867 3.6446 11.3952 3.85457 11.7709 4.22858C12.1453 4.6041 12.3555 5.11269 12.3555 5.64291C12.3555 6.17314 12.1453 6.68173 11.7709 7.05725L10.3563 8.47125C9.60092 9.22658 8.28359 9.22658 7.52826 8.47125L7.05692 7.99991L6.11426 8.94258L6.58559 9.41391C7.21426 10.0432 8.05159 10.3906 8.94226 10.3906C9.83292 10.3906 10.6703 10.0432 11.2989 9.41391L12.7136 7.99991C13.3371 7.37393 13.6871 6.52642 13.6871 5.64291C13.6871 4.75941 13.3371 3.9119 12.7136 3.28591C12.088 2.66178 11.2403 2.31128 10.3566 2.31128C9.47287 2.31128 8.62523 2.66178 7.99959 3.28591Z" fill="white"/>
</svg>
