<svg width="21" height="21" viewBox="0 0 21 21" fill="none" xmlns="http://www.w3.org/2000/svg">
<path d="M15.75 19.25C15.5964 19.25 15.4455 19.2096 15.3125 19.1327L10.5 16.3573L5.6875 19.1327C5.55448 19.2095 5.4036 19.25 5.25001 19.25C5.09641 19.25 4.94553 19.2096 4.81251 19.1328C4.67949 19.056 4.56903 18.9455 4.49224 18.8125C4.41544 18.6795 4.375 18.5286 4.375 18.375V4.375C4.37569 3.67902 4.65248 3.01174 5.14461 2.51961C5.63674 2.02748 6.30402 1.75069 7 1.75H14C14.696 1.75069 15.3633 2.02748 15.8554 2.51961C16.3475 3.01174 16.6243 3.67902 16.625 4.375V18.375C16.625 18.6071 16.5328 18.8296 16.3687 18.9937C16.2046 19.1578 15.9821 19.25 15.75 19.25Z" fill="#454649"/>
</svg>
