<svg width="21" height="21" viewBox="0 0 21 21" fill="none" xmlns="http://www.w3.org/2000/svg">
<path d="M3 17.895V8.29061C3 8.00773 3.06552 7.73996 3.19657 7.48729C3.32762 7.23462 3.50819 7.02652 3.73829 6.86298L9.89257 2.35691C10.2149 2.11897 10.5829 2 10.9966 2C11.4103 2 11.7806 2.11897 12.1074 2.35691L18.2617 6.86188C18.4926 7.02541 18.6731 7.23389 18.8034 7.48729C18.9345 7.73996 19 8.00773 19 8.29061V17.895C19 18.1912 18.8861 18.4494 18.6583 18.6696C18.4305 18.8899 18.1634 19 17.8571 19H13.9897C13.7276 19 13.5082 18.9145 13.3314 18.7436C13.1547 18.572 13.0663 18.3599 13.0663 18.1072V12.8376C13.0663 12.5849 12.9779 12.3731 12.8011 12.2022C12.6236 12.0306 12.4042 11.9448 12.1429 11.9448H9.85714C9.59581 11.9448 9.37676 12.0306 9.2 12.2022C9.02248 12.3731 8.93371 12.5849 8.93371 12.8376V18.1083C8.93371 18.361 8.84533 18.5727 8.66857 18.7436C8.49181 18.9145 8.27276 19 8.01143 19H4.14286C3.83657 19 3.56952 18.8899 3.34171 18.6696C3.1139 18.4494 3 18.1912 3 17.895Z" fill="#454649"/>
</svg>
