<svg width="21" height="21" viewBox="0 0 21 21" fill="none" xmlns="http://www.w3.org/2000/svg">
<path d="M18.375 4.59375C18.375 4.7678 18.3059 4.93472 18.1828 5.05779C18.0597 5.18086 17.8928 5.25 17.7188 5.25H17.0625V17.0625C17.0625 17.4106 16.9242 17.7444 16.6781 17.9906C16.4319 18.2367 16.0981 18.375 15.75 18.375H5.25C4.9019 18.375 4.56806 18.2367 4.32192 17.9906C4.07578 17.7444 3.9375 17.4106 3.9375 17.0625V5.25H3.28125C3.1072 5.25 2.94028 5.18086 2.81721 5.05779C2.69414 4.93472 2.625 4.7678 2.625 4.59375C2.625 4.4197 2.69414 4.25278 2.81721 4.12971C2.94028 4.00664 3.1072 3.9375 3.28125 3.9375H17.7188C17.8928 3.9375 18.0597 4.00664 18.1828 4.12971C18.3059 4.25278 18.375 4.4197 18.375 4.59375ZM7.21875 2.625H13.7812C13.9553 2.625 14.1222 2.55586 14.2453 2.43279C14.3684 2.30972 14.4375 2.1428 14.4375 1.96875C14.4375 1.7947 14.3684 1.62778 14.2453 1.50471C14.1222 1.38164 13.9553 1.3125 13.7812 1.3125H7.21875C7.0447 1.3125 6.87778 1.38164 6.75471 1.50471C6.63164 1.62778 6.5625 1.7947 6.5625 1.96875C6.5625 2.1428 6.63164 2.30972 6.75471 2.43279C6.87778 2.55586 7.0447 2.625 7.21875 2.625Z" fill="#454649"/>
</svg>
