<svg width="21" height="21" viewBox="0 0 21 21" fill="none" xmlns="http://www.w3.org/2000/svg">
<path d="M15.5355 12.25C16.0574 12.2505 16.5577 12.4581 16.9265 12.8273C17.2954 13.1964 17.5025 13.6969 17.5025 14.2188V15.022C17.5025 15.5234 17.3459 16.0122 17.0545 16.4203C15.7018 18.3138 13.4933 19.2509 10.5008 19.2509C7.50654 19.2509 5.29892 18.3129 3.94967 16.4194C3.65928 16.0116 3.50329 15.5235 3.50342 15.0229V14.2179C3.50365 13.6961 3.71105 13.1957 4.08005 12.8267C4.44905 12.4577 4.94945 12.2503 5.47129 12.25H15.5355ZM10.4999 1.75439C11.0745 1.75439 11.6434 1.86756 12.1742 2.08742C12.705 2.30729 13.1873 2.62955 13.5935 3.0358C13.9998 3.44206 14.322 3.92436 14.5419 4.45515C14.7618 4.98595 14.8749 5.55486 14.8749 6.12939C14.8749 6.70393 14.7618 7.27283 14.5419 7.80363C14.322 8.33443 13.9998 8.81673 13.5935 9.22299C13.1873 9.62924 12.705 9.9515 12.1742 10.1714C11.6434 10.3912 11.0745 10.5044 10.4999 10.5044C9.3396 10.5044 8.2268 10.0435 7.40633 9.22299C6.58585 8.40251 6.12492 7.28972 6.12492 6.12939C6.12492 4.96907 6.58585 3.85627 7.40633 3.0358C8.2268 2.21533 9.3396 1.75439 10.4999 1.75439Z" fill="#454649"/>
</svg>
