<svg width="26" height="26" viewBox="0 0 26 26" fill="none" xmlns="http://www.w3.org/2000/svg">
<path d="M13 19.5C14.7239 19.5 16.3772 18.8152 17.5962 17.5962C18.8151 16.3772 19.5 14.7239 19.5 13C19.5 11.2761 18.8151 9.62278 17.5962 8.4038C16.3772 7.18481 14.7239 6.49999 13 6.49999C11.2761 6.49999 9.62275 7.18481 8.40377 8.4038C7.18478 9.62278 6.49996 11.2761 6.49996 13C6.49996 14.7239 7.18478 16.3772 8.40377 17.5962C9.62275 18.8152 11.2761 19.5 13 19.5ZM23.8333 13C23.8333 15.8732 22.6919 18.6287 20.6603 20.6603C18.6286 22.692 15.8731 23.8333 13 23.8333C10.1268 23.8333 7.37128 22.692 5.33964 20.6603C3.30799 18.6287 2.16663 15.8732 2.16663 13C2.16663 10.1268 3.30799 7.37131 5.33964 5.33967C7.37128 3.30802 10.1268 2.16666 13 2.16666C15.8731 2.16666 18.6286 3.30802 20.6603 5.33967C22.6919 7.37131 23.8333 10.1268 23.8333 13ZM21.6666 13C21.6666 10.7014 20.7535 8.49705 19.1282 6.87173C17.5029 5.24642 15.2985 4.33332 13 4.33332C10.7014 4.33332 8.49702 5.24642 6.8717 6.87173C5.24639 8.49705 4.33329 10.7014 4.33329 13C4.33329 15.2985 5.24639 17.5029 6.8717 19.1282C8.49702 20.7536 10.7014 21.6667 13 21.6667C15.2985 21.6667 17.5029 20.7536 19.1282 19.1282C20.7535 17.5029 21.6666 15.2985 21.6666 13Z" fill="#8197D5"/>
</svg>
