<svg width="68" height="68" viewBox="0 0 68 68" fill="none" xmlns="http://www.w3.org/2000/svg">
<path d="M44.2501 59.9691H22.8407C19.8843 60.0844 19.8817 64.3105 22.8407 64.429H44.2501C47.206 64.3116 47.2086 60.0865 44.2501 59.9691Z" fill="url(#paint0_linear_40_345)"/>
<path d="M55.5419 14.5658C52.9409 13.1537 50.7792 16.7853 53.2618 18.3977C55.9557 20.0021 57.6302 22.9415 57.6302 26.0705V44.3578C57.6302 49.2771 53.6294 53.279 48.7105 53.279H18.3794C13.4616 53.279 9.46126 49.2771 9.46126 44.3599V26.0711C9.46126 22.9415 11.1347 20.0021 13.8292 18.3982C14.8874 17.7692 15.2354 16.4007 14.6059 15.3414C13.9764 14.2842 12.6079 13.9357 11.5491 14.5663C7.54026 16.9144 4.96529 21.4168 5.00035 26.0711V44.3599C5.00035 51.7374 11.0019 57.7389 18.3788 57.7389H48.71C56.088 57.7389 62.0901 51.7352 62.0901 44.3578V26.0711C62.1262 21.4163 59.5507 16.9139 55.5419 14.5658Z" fill="url(#paint1_linear_40_345)"/>
<path d="M41.9685 12.3127L17.5172 20.278C17.3929 20.3187 17.2852 20.3987 17.2103 20.5059C17.1354 20.6131 17.0974 20.7418 17.1019 20.8725C17.1065 21.0032 17.1533 21.1288 17.2355 21.2306C17.3177 21.3324 17.4306 21.4047 17.5575 21.4366L30.4951 24.5504L33.6089 37.4881C33.6402 37.6153 33.7121 37.7288 33.8138 37.8116C33.9154 37.8943 34.0411 37.9417 34.1721 37.9467C34.2992 37.946 34.4229 37.9052 34.5255 37.8301C34.6281 37.7549 34.7043 37.6493 34.7433 37.5283L42.7087 13.077C42.743 12.971 42.7468 12.8575 42.7198 12.7494C42.6928 12.6413 42.636 12.543 42.5558 12.4655C42.4797 12.3911 42.3855 12.3379 42.2825 12.3111C42.1795 12.2843 42.0712 12.2848 41.9685 12.3127ZM34.2847 35.1226L31.5813 23.9067C31.5568 23.7987 31.5022 23.6999 31.4239 23.6216C31.3456 23.5433 31.2468 23.4887 31.1388 23.4642L19.9229 20.7608L41.2122 13.8333L34.2847 35.1226Z" fill="#97CBFF"/>
<path d="M41.8227 11.7751C42.0189 11.7219 42.2258 11.7217 42.4226 11.7729C42.6182 11.8238 42.7971 11.9245 42.9421 12.0653L43.0497 12.1848C43.1485 12.3113 43.2202 12.4573 43.2595 12.6141C43.2987 12.7711 43.3045 12.9342 43.2768 13.0923L43.2377 13.2478V13.2488L35.2723 37.6982L35.2734 37.6993C35.1984 37.9318 35.051 38.1342 34.8539 38.2786C34.6567 38.4229 34.419 38.5023 34.1746 38.5035H34.1627L34.1507 38.5025C33.8992 38.4929 33.6579 38.4016 33.4628 38.2427C33.2674 38.0837 33.1285 37.8656 33.0682 37.621V37.6178L30.0338 25.0105L17.4276 21.9772L17.4211 21.9761C17.1776 21.9146 16.9606 21.7758 16.8027 21.5805C16.6448 21.3849 16.555 21.1427 16.5462 20.8914C16.5376 20.6404 16.61 20.3931 16.7538 20.1872C16.8978 19.9811 17.1051 19.8274 17.344 19.7492H17.345L41.7966 11.7838L41.8227 11.7751ZM42.2824 12.3109C42.1794 12.2841 42.071 12.2853 41.9683 12.3131L17.5168 20.2785C17.3928 20.3192 17.2851 20.3986 17.2103 20.5056L17.1614 20.5904C17.1194 20.6779 17.0982 20.775 17.1016 20.873C17.1062 21.0034 17.1533 21.1289 17.2353 21.2305C17.3174 21.3322 17.4303 21.405 17.557 21.437L30.4957 24.5508L33.6084 37.4884C33.6398 37.6155 33.7123 37.7286 33.8138 37.8112C33.8899 37.8732 33.9795 37.9158 34.0746 37.9351L34.1725 37.9471C34.2678 37.9465 34.3612 37.923 34.4452 37.8797L34.5257 37.8297C34.628 37.7547 34.704 37.6494 34.743 37.5287L42.7084 13.0771C42.7341 12.9977 42.7432 12.9139 42.7345 12.8315L42.7204 12.7489C42.7001 12.668 42.6627 12.5925 42.6117 12.5272L42.5563 12.4652C42.4993 12.4095 42.4318 12.3657 42.3585 12.3359L42.2824 12.3109ZM34.2844 35.1224L31.5815 23.9063C31.563 23.8253 31.5278 23.7494 31.4782 23.6835L31.4239 23.6216C31.3456 23.5433 31.247 23.4885 31.1391 23.464L19.923 20.761L41.2119 13.8336L34.2844 35.1224ZM21.9663 20.6806L31.2695 22.9227L31.2684 22.9238C31.4762 22.9723 31.6664 23.0772 31.8173 23.2281C31.9679 23.3787 32.0719 23.5687 32.1205 23.7759H32.1227L34.3637 33.0781L40.3435 14.7009L21.9663 20.6806Z" fill="#97CBFF"/>
<path d="M42.1536 4.55652C41.9942 4.5586 41.8419 4.62285 41.7292 4.73557C41.6165 4.84828 41.5523 5.00056 41.5502 5.15996V8.45874C41.5502 8.61878 41.6137 8.77227 41.7269 8.88544C41.8401 8.9986 41.9936 9.06218 42.1536 9.06218C42.3136 9.06218 42.4671 8.9986 42.5803 8.88544C42.6935 8.77227 42.757 8.61878 42.757 8.45874V5.15996C42.757 4.99991 42.6935 4.84643 42.5803 4.73326C42.4671 4.6201 42.3136 4.55652 42.1536 4.55652Z" fill="#97CBFF"/>
<path d="M42.7565 5.15965C42.7564 5.03961 42.7211 4.9233 42.6554 4.8249L42.5804 4.73361C42.4673 4.62044 42.3133 4.55646 42.1533 4.55646C41.994 4.5586 41.8421 4.62312 41.7294 4.73578L41.6544 4.82708C41.5887 4.9249 41.5517 5.04013 41.5501 5.15965V8.45818L41.5621 8.57665C41.5852 8.69273 41.6423 8.80037 41.7273 8.88531C41.812 8.96999 41.9191 9.02728 42.0348 9.0505L42.1533 9.06246C42.2733 9.06246 42.3896 9.02592 42.488 8.9603L42.5804 8.88531C42.6653 8.80036 42.7225 8.69272 42.7456 8.57665L42.7565 8.45818V5.15965ZM43.3129 8.45818C43.3129 8.76574 43.1913 9.06123 42.9739 9.27874C42.7563 9.49626 42.4609 9.61892 42.1533 9.61892C41.8458 9.61885 41.5513 9.4961 41.3338 9.27874C41.1163 9.06121 40.9937 8.7658 40.9937 8.45818V5.15313L41.0002 5.03901C41.0293 4.77649 41.1477 4.5307 41.336 4.34235C41.5513 4.12706 41.8423 4.00398 42.1468 4H42.1533L42.2685 4.00543C42.5339 4.03186 42.7836 4.14992 42.9739 4.34018C43.1911 4.55761 43.3129 4.85226 43.3129 5.15965V8.45818Z" fill="#97CBFF"/>
<path d="M45.2914 10.3575C45.3707 10.3578 45.4492 10.3424 45.5224 10.312C45.5957 10.2816 45.6621 10.2369 45.7178 10.1805L48.0511 7.84716C48.1104 7.79192 48.1579 7.7253 48.1909 7.65128C48.2239 7.57726 48.2416 7.49735 48.2431 7.41633C48.2445 7.3353 48.2296 7.25482 48.1992 7.17968C48.1689 7.10455 48.1237 7.03629 48.0664 6.97899C48.0091 6.92169 47.9408 6.87651 47.8657 6.84616C47.7906 6.81582 47.7101 6.80091 47.6291 6.80234C47.548 6.80377 47.4681 6.8215 47.3941 6.85449C47.3201 6.88747 47.2535 6.93502 47.1982 6.99431L44.8649 9.3276C44.808 9.38307 44.7628 9.44938 44.7319 9.52262C44.701 9.59585 44.6851 9.67454 44.6851 9.75402C44.6851 9.83351 44.701 9.91219 44.7319 9.98543C44.7628 10.0587 44.808 10.125 44.8649 10.1805C44.9204 10.2372 44.9867 10.2822 45.06 10.3126C45.1333 10.343 45.212 10.3583 45.2914 10.3575Z" fill="#97CBFF"/>
<path d="M47.6196 6.24578C47.7752 6.24307 47.9296 6.27229 48.0739 6.33055C48.2183 6.38889 48.3495 6.47582 48.4597 6.58596C48.5698 6.69608 48.6568 6.8274 48.7151 6.97178C48.7733 7.11607 48.8026 7.27049 48.7999 7.42608C48.7971 7.58182 48.7622 7.73592 48.6988 7.8782C48.6381 8.01421 48.5505 8.13572 48.4434 8.23903L48.4445 8.24011L46.1132 10.5703L46.1143 10.5714C46.0066 10.6804 45.8776 10.7669 45.7361 10.8257C45.5966 10.8836 45.4469 10.9124 45.2959 10.9126L45.297 10.9137C45.2952 10.9137 45.2934 10.9126 45.2916 10.9126L45.2883 10.9137V10.9126C45.1369 10.913 44.9869 10.8848 44.8471 10.8268C44.7086 10.7693 44.5835 10.6839 44.4775 10.5779L44.4764 10.579C44.4748 10.5774 44.4737 10.5752 44.4721 10.5735C44.4705 10.5719 44.4683 10.5708 44.4667 10.5692L44.4678 10.5681C44.3623 10.4628 44.2768 10.3392 44.2189 10.2018C44.1591 10.0602 44.1287 9.90782 44.1287 9.75407C44.1287 9.60033 44.1591 9.44796 44.2189 9.30629C44.2786 9.16468 44.3664 9.03645 44.4764 8.92916L46.8044 6.60117V6.60226C46.9081 6.4945 47.0308 6.40667 47.1674 6.34577C47.3097 6.28237 47.4638 6.24853 47.6196 6.24578ZM44.6971 9.87253C44.7049 9.91113 44.7165 9.9491 44.7319 9.98556C44.7627 10.0588 44.8086 10.1247 44.8655 10.1801C44.9209 10.2368 44.9868 10.2823 45.0601 10.3127C45.1334 10.3431 45.2122 10.3581 45.2916 10.3573C45.3311 10.3574 45.3704 10.354 45.4089 10.3464L45.522 10.3116C45.5952 10.2812 45.6619 10.2365 45.7176 10.1801L48.051 7.84668C48.0806 7.81907 48.1081 7.78926 48.1315 7.75647L48.1912 7.65105C48.2076 7.61425 48.2206 7.57605 48.2293 7.53693L48.2434 7.4163C48.2441 7.37578 48.241 7.3353 48.2336 7.29566L48.1988 7.17937C48.1838 7.14208 48.1655 7.10625 48.1434 7.07286L48.0663 6.97939C48.0376 6.9507 48.0064 6.92449 47.9728 6.90222L47.8663 6.84571C47.8288 6.83057 47.7895 6.81936 47.75 6.81202L47.6293 6.80224C47.5485 6.80366 47.4685 6.82153 47.3946 6.8544L47.2892 6.91418C47.2563 6.93763 47.2255 6.96492 47.1979 6.9946L44.8655 9.32803L44.7884 9.41824C44.7661 9.4509 44.7473 9.48596 44.7319 9.52257L44.6971 9.6356C44.6892 9.67448 44.6851 9.7142 44.6851 9.75407L44.6971 9.87253Z" fill="#97CBFF"/>
<path d="M49.8856 12.2885H46.5868C46.4268 12.2885 46.2733 12.352 46.1601 12.4652C46.047 12.5784 45.9834 12.7318 45.9834 12.8919C45.9834 13.0519 46.047 13.2054 46.1601 13.3186C46.2733 13.4317 46.4268 13.4953 46.5868 13.4953H49.8856C50.0457 13.4953 50.1992 13.4317 50.3123 13.3186C50.4255 13.2054 50.4891 13.0519 50.4891 12.8919C50.4891 12.7318 50.4255 12.5784 50.3123 12.4652C50.1992 12.352 50.0457 12.2885 49.8856 12.2885Z" fill="#97CBFF"/>
<path d="M45.427 12.8917C45.4271 12.5842 45.5497 12.2897 45.7672 12.0722C45.9846 11.8548 46.2791 11.7321 46.5867 11.7321V12.2885C46.4267 12.2886 46.2737 12.3526 46.1606 12.4657L46.0845 12.557C46.019 12.6553 45.9835 12.7718 45.9835 12.8917L45.9954 13.0102C46.0186 13.1262 46.0757 13.234 46.1606 13.3188C46.2454 13.4035 46.3525 13.4608 46.4682 13.484L46.5867 13.4949H49.8852C50.0054 13.4949 50.1225 13.4596 50.221 13.3938L50.3123 13.3188C50.3972 13.2339 50.4543 13.1262 50.4775 13.0102L50.4895 12.8917C50.4894 12.7716 50.453 12.6554 50.3873 12.557L50.3123 12.4657C50.2274 12.3807 50.1197 12.3236 50.0036 12.3005L49.8852 12.2885V11.7321C50.1928 11.7321 50.4882 11.8547 50.7057 12.0722C50.9231 12.2897 51.0459 12.5843 51.0459 12.8917C51.0459 13.1993 50.9233 13.4947 50.7057 13.7123C50.4882 13.9297 50.1927 14.0514 49.8852 14.0514H46.5867C46.2793 14.0513 45.9846 13.9295 45.7672 13.7123C45.5497 13.4947 45.427 13.1993 45.427 12.8917ZM49.8852 11.7321V12.2885H46.5867V11.7321H49.8852Z" fill="#97CBFF"/>
<path d="M45.7178 15.6195C45.6047 15.5065 45.4513 15.443 45.2914 15.443C45.1315 15.443 44.9781 15.5065 44.8649 15.6195C44.808 15.6749 44.7628 15.7413 44.7319 15.8145C44.701 15.8877 44.6851 15.9664 44.6851 16.0459C44.6851 16.1254 44.701 16.2041 44.7319 16.2773C44.7628 16.3505 44.808 16.4169 44.8649 16.4723L47.1982 18.8056C47.2531 18.8632 47.3193 18.9086 47.3928 18.9391C47.4662 18.9696 47.5452 18.9844 47.6247 18.9826C47.7039 18.983 47.7825 18.9675 47.8557 18.9371C47.929 18.9067 47.9954 18.862 48.0511 18.8056C48.1641 18.6925 48.2276 18.5391 48.2276 18.3792C48.2276 18.2193 48.1641 18.0659 48.0511 17.9528L45.7178 15.6195Z" fill="#97CBFF"/>
<path d="M44.1287 16.0462C44.1287 15.8926 44.1592 15.7401 44.2189 15.5985C44.2786 15.4569 44.3664 15.3286 44.4764 15.2213C44.6935 15.007 44.9864 14.8866 45.2916 14.8866C45.5605 14.8866 45.82 14.9797 46.0263 15.1485L46.111 15.2257L48.4445 17.5591L48.5216 17.645C48.6904 17.8513 48.7836 18.1108 48.7836 18.3797C48.7834 18.686 48.6615 18.9787 48.4456 19.1959L48.4466 19.197C48.339 19.3059 48.2109 19.3925 48.0695 19.4513C47.9321 19.5083 47.7846 19.5372 47.6359 19.5382L47.637 19.5393C47.6337 19.5394 47.6304 19.5382 47.6272 19.5382C47.6255 19.5382 47.6234 19.5393 47.6217 19.5393V19.5382C47.4701 19.5396 47.3196 19.5116 47.1794 19.4535C47.0382 19.3949 46.911 19.3075 46.8044 19.1981V19.1991L44.471 16.8657L44.4721 16.8646C44.3646 16.7585 44.2776 16.6333 44.2189 16.494C44.1591 16.3524 44.1287 16.1999 44.1287 16.0462ZM44.6971 16.1636C44.7049 16.2025 44.7164 16.241 44.7319 16.2777C44.7627 16.3509 44.8087 16.4169 44.8655 16.4723L47.1979 18.8057C47.2527 18.8632 47.3191 18.9089 47.3924 18.9394C47.4658 18.9699 47.5455 18.9847 47.625 18.9829C47.6645 18.983 47.7038 18.9796 47.7424 18.972L47.8554 18.9372C47.9286 18.9068 47.9953 18.8621 48.051 18.8057C48.1359 18.7207 48.1931 18.6131 48.2162 18.497L48.2271 18.3797C48.2271 18.2597 48.1916 18.1433 48.126 18.0449L48.051 17.9525L45.7176 15.6191C45.6329 15.5347 45.5256 15.4782 45.41 15.455L45.2916 15.4431C45.1319 15.4431 44.9786 15.5064 44.8655 15.6191L44.7884 15.7104C44.7661 15.743 44.7473 15.7782 44.7319 15.8148L44.6971 15.9278C44.6892 15.9666 44.6851 16.0064 44.6851 16.0462L44.6971 16.1636Z" fill="#97CBFF"/>
<path d="M38.6214 10.1805C38.7346 10.2935 38.8879 10.3569 39.0478 10.3569C39.2078 10.3569 39.3611 10.2935 39.4743 10.1805C39.5873 10.0673 39.6508 9.91393 39.6508 9.75402C39.6508 9.59411 39.5873 9.44074 39.4743 9.3276L37.141 6.99431C37.0857 6.93502 37.0191 6.88747 36.9451 6.85449C36.8711 6.8215 36.7912 6.80377 36.7102 6.80234C36.6291 6.80091 36.5486 6.81582 36.4735 6.84616C36.3984 6.87651 36.3301 6.92169 36.2728 6.97899C36.2155 7.03629 36.1703 7.10455 36.14 7.17968C36.1096 7.25482 36.0947 7.3353 36.0962 7.41633C36.0976 7.49735 36.1153 7.57726 36.1483 7.65128C36.1813 7.7253 36.2288 7.79192 36.2881 7.84716L38.6214 10.1805Z" fill="#97CBFF"/>
<path d="M39.6512 9.75407C39.6512 9.59419 39.587 9.44117 39.4741 9.32803L37.1406 6.99461C37.113 6.96499 37.0832 6.93759 37.0504 6.91418L36.945 6.85441C36.9082 6.83802 36.87 6.82508 36.8309 6.81637L36.7102 6.80224C36.6292 6.80081 36.5484 6.81537 36.4733 6.84571L36.3668 6.90223C36.3331 6.92452 36.3021 6.95067 36.2733 6.97939L36.1962 7.07286C36.174 7.10637 36.1548 7.14194 36.1397 7.17937L36.106 7.29566C36.0986 7.33532 36.0955 7.37577 36.0962 7.4163C36.0976 7.49725 36.1154 7.57709 36.1484 7.65105C36.1813 7.72505 36.2293 7.79145 36.2886 7.84668L38.622 10.1801C38.7068 10.2648 38.8138 10.3221 38.9296 10.3453L39.048 10.3573C39.1679 10.3573 39.2844 10.3217 39.3828 10.2562L39.4741 10.1801C39.5587 10.0953 39.6161 9.98832 39.6393 9.87254L39.6512 9.75407ZM40.2077 9.75407C40.2077 10.0613 40.0856 10.3561 39.8686 10.5735L39.8675 10.5746C39.65 10.7916 39.3552 10.9137 39.048 10.9137C38.7408 10.9137 38.446 10.7916 38.2285 10.5746V10.5735L35.8951 8.24012L35.8962 8.23903C35.7889 8.13562 35.7004 8.01438 35.6397 7.8782C35.5763 7.73593 35.5425 7.58182 35.5397 7.42608C35.537 7.27047 35.5663 7.1161 35.6245 6.97178C35.6828 6.82736 35.7698 6.6961 35.8799 6.58596C35.99 6.47582 36.1213 6.38889 36.2657 6.33055C36.41 6.27231 36.5644 6.24304 36.72 6.24578C36.8758 6.24853 37.0299 6.28238 37.1721 6.34577C37.3083 6.40648 37.4307 6.49392 37.5341 6.60118L39.8675 8.9346H39.8686L39.9447 9.01937C40.1136 9.22574 40.2077 9.48503 40.2077 9.75407Z" fill="#97CBFF"/>
<defs>
<linearGradient id="paint0_linear_40_345" x1="33.5452" y1="59.9691" x2="33.5452" y2="64.429" gradientUnits="userSpaceOnUse">
<stop stop-color="#98CBFF"/>
<stop offset="1" stop-color="#8DA9FD"/>
</linearGradient>
<linearGradient id="paint1_linear_40_345" x1="33.5452" y1="14.2463" x2="33.5452" y2="57.7389" gradientUnits="userSpaceOnUse">
<stop stop-color="#98CBFF"/>
<stop offset="1" stop-color="#8DA9FD"/>
</linearGradient>
</defs>
</svg>
