<svg width="190" height="62" viewBox="0 0 190 62" fill="none" xmlns="http://www.w3.org/2000/svg">
<circle cx="31" cy="31" r="31" fill="url(#paint0_linear_236_2972)"/>
<path d="M37.008 46.2214H24.4592C22.7264 46.289 22.7248 48.766 24.4592 48.8355H37.008C38.7405 48.7666 38.7421 46.2902 37.008 46.2214Z" fill="white"/>
<path d="M43.6264 19.609C42.1019 18.7813 40.8349 20.9099 42.29 21.855C43.869 22.7954 44.8505 24.5182 44.8505 26.3523V37.0711C44.8505 39.9545 42.5055 42.3001 39.6224 42.3001H21.8442C18.9617 42.3001 16.617 39.9545 16.617 37.0723V26.3526C16.617 24.5182 17.5979 22.7954 19.1772 21.8553C19.7975 21.4866 20.0014 20.6845 19.6324 20.0636C19.2635 19.4439 18.4613 19.2397 17.8407 19.6093C15.491 20.9856 13.9818 23.6246 14.0023 26.3526V37.0723C14.0023 41.3965 17.52 44.9142 21.8439 44.9142H39.6221C43.9466 44.9142 47.4646 41.3953 47.4646 37.0711V26.3526C47.4857 23.6243 45.9762 20.9853 43.6264 19.609Z" fill="white"/>
<path d="M35.6706 18.2883L21.3389 22.9571C21.2661 22.9809 21.2029 23.0278 21.159 23.0906C21.1151 23.1535 21.0928 23.2289 21.0955 23.3055C21.0981 23.3821 21.1256 23.4558 21.1738 23.5154C21.2219 23.575 21.2882 23.6174 21.3625 23.6362L28.9457 25.4612L30.7708 33.0445C30.7892 33.119 30.8313 33.1856 30.8909 33.2341C30.9504 33.2826 31.0241 33.3104 31.1009 33.3133C31.1754 33.3129 31.2479 33.289 31.3081 33.2449C31.3682 33.2009 31.4129 33.139 31.4357 33.068L36.1045 18.7363C36.1246 18.6742 36.1269 18.6076 36.111 18.5443C36.0952 18.4809 36.0619 18.4233 36.0149 18.3779C35.9703 18.3343 35.915 18.3031 35.8547 18.2874C35.7943 18.2717 35.7309 18.272 35.6706 18.2883ZM31.1669 31.658L29.5824 25.084C29.568 25.0207 29.536 24.9627 29.4901 24.9169C29.4442 24.871 29.3863 24.839 29.323 24.8246L22.749 23.24L35.2273 19.1796L31.1669 31.658Z" fill="white"/>
<path d="M35.5851 17.9732C35.7002 17.942 35.8215 17.9419 35.9368 17.9719C36.0514 18.0018 36.1563 18.0608 36.2413 18.1433L36.3043 18.2134C36.3623 18.2875 36.4043 18.3731 36.4273 18.465C36.4503 18.557 36.4537 18.6526 36.4375 18.7453L36.4146 18.8364V18.837L31.7458 33.1676L31.7464 33.1683C31.7025 33.3046 31.616 33.4232 31.5005 33.5078C31.3849 33.5924 31.2456 33.6389 31.1024 33.6397H31.0954L31.0884 33.639C30.9409 33.6334 30.7995 33.5799 30.6851 33.4868C30.5706 33.3936 30.4892 33.2657 30.4539 33.1224V33.1205L28.6753 25.731L21.2864 23.953L21.2826 23.9524C21.1398 23.9163 21.0126 23.835 20.9201 23.7205C20.8275 23.6059 20.7749 23.4639 20.7698 23.3166C20.7647 23.1695 20.8071 23.0245 20.8914 22.9038C20.9758 22.7831 21.0973 22.693 21.2373 22.6471H21.238L35.5699 17.9783L35.5851 17.9732ZM35.8546 18.2873C35.7943 18.2716 35.7307 18.2722 35.6705 18.2885L21.3386 22.9573C21.2659 22.9812 21.2028 23.0278 21.159 23.0905L21.1303 23.1402C21.1057 23.1914 21.0933 23.2484 21.0953 23.3058C21.098 23.3822 21.1256 23.4558 21.1736 23.5154C21.2217 23.575 21.288 23.6176 21.3622 23.6364L28.946 25.4615L30.7705 33.0447C30.7889 33.1192 30.8314 33.1854 30.8909 33.2339C30.9355 33.2702 30.988 33.2952 31.0438 33.3065L31.1011 33.3135C31.157 33.3132 31.2117 33.2994 31.261 33.274L31.3081 33.2447C31.3681 33.2007 31.4127 33.139 31.4355 33.0683L36.1043 18.7364C36.1194 18.6898 36.1247 18.6407 36.1196 18.5924L36.1113 18.544C36.0994 18.4965 36.0775 18.4523 36.0476 18.414L36.0151 18.3777C35.9817 18.3451 35.9422 18.3194 35.8992 18.3019L35.8546 18.2873ZM31.1667 31.6579L29.5824 25.0837C29.5716 25.0363 29.551 24.9917 29.5219 24.9531L29.49 24.9168C29.4442 24.871 29.3864 24.8389 29.3231 24.8245L22.749 23.2402L35.2271 19.1797L31.1667 31.6579ZM23.9466 23.193L29.3996 24.5072L29.399 24.5079C29.5207 24.5363 29.6322 24.5978 29.7207 24.6862C29.8089 24.7745 29.8699 24.8858 29.8984 25.0073H29.8997L31.2132 30.4596L34.7181 19.6881L23.9466 23.193Z" fill="white"/>
<path d="M35.7791 13.7421C35.6857 13.7433 35.5964 13.781 35.5304 13.8471C35.4643 13.9131 35.4266 14.0024 35.4254 14.0958V16.0294C35.4254 16.1232 35.4627 16.2131 35.529 16.2795C35.5953 16.3458 35.6853 16.3831 35.7791 16.3831C35.8729 16.3831 35.9629 16.3458 36.0292 16.2795C36.0955 16.2131 36.1328 16.1232 36.1328 16.0294V14.0958C36.1328 14.002 36.0955 13.9121 36.0292 13.8457C35.9629 13.7794 35.8729 13.7421 35.7791 13.7421Z" fill="white"/>
<path d="M36.1325 14.0957C36.1325 14.0253 36.1118 13.9571 36.0733 13.8995L36.0293 13.846C35.963 13.7796 35.8728 13.7421 35.779 13.7421C35.6856 13.7434 35.5965 13.7812 35.5305 13.8472L35.4866 13.9007C35.448 13.9581 35.4263 14.0256 35.4254 14.0957V16.0291L35.4324 16.0985C35.446 16.1665 35.4795 16.2296 35.5292 16.2794C35.5789 16.3291 35.6417 16.3626 35.7095 16.3762L35.779 16.3833C35.8493 16.3833 35.9175 16.3618 35.9752 16.3234L36.0293 16.2794C36.0791 16.2296 36.1126 16.1665 36.1261 16.0985L36.1325 16.0291V14.0957ZM36.4587 16.0291C36.4587 16.2093 36.3874 16.3825 36.2599 16.51C36.1324 16.6375 35.9593 16.7094 35.779 16.7094C35.5987 16.7094 35.4261 16.6374 35.2986 16.51C35.1711 16.3825 35.0992 16.2094 35.0992 16.0291V14.0919L35.1031 14.025C35.1201 13.8711 35.1895 13.727 35.2999 13.6166C35.4261 13.4904 35.5967 13.4183 35.7751 13.416H35.779L35.8465 13.4192C36.002 13.4346 36.1484 13.5038 36.2599 13.6154C36.3873 13.7428 36.4586 13.9155 36.4587 14.0957V16.0291Z" fill="white"/>
<path d="M37.6183 17.1423C37.6648 17.1425 37.7108 17.1335 37.7537 17.1156C37.7966 17.0978 37.8356 17.0716 37.8682 17.0386L39.2359 15.6709C39.2706 15.6386 39.2985 15.5995 39.3178 15.5561C39.3371 15.5127 39.3475 15.4659 39.3484 15.4184C39.3492 15.3709 39.3405 15.3237 39.3227 15.2797C39.3049 15.2357 39.2784 15.1957 39.2448 15.1621C39.2112 15.1285 39.1712 15.102 39.1272 15.0842C39.0832 15.0664 39.036 15.0577 38.9885 15.0585C38.941 15.0594 38.8942 15.0698 38.8508 15.0891C38.8074 15.1084 38.7683 15.1363 38.736 15.171L37.3683 16.5387C37.335 16.5712 37.3085 16.61 37.2903 16.653C37.2722 16.6959 37.2629 16.742 37.2629 16.7886C37.2629 16.8352 37.2722 16.8813 37.2903 16.9242C37.3085 16.9672 37.335 17.006 37.3683 17.0386C37.4008 17.0718 37.4397 17.0982 37.4827 17.116C37.5257 17.1339 37.5718 17.1428 37.6183 17.1423Z" fill="white"/>
<path d="M38.9829 14.7323C39.0741 14.7307 39.1646 14.7478 39.2492 14.782C39.3338 14.8162 39.4107 14.8671 39.4753 14.9317C39.5398 14.9962 39.5908 15.0732 39.625 15.1578C39.6591 15.2424 39.6763 15.3329 39.6747 15.4241C39.6731 15.5154 39.6526 15.6057 39.6154 15.6891C39.5799 15.7688 39.5285 15.8401 39.4657 15.9006L39.4664 15.9013L38.1 17.267L38.1006 17.2677C38.0375 17.3316 37.9619 17.3823 37.8789 17.4168C37.7972 17.4507 37.7094 17.4676 37.6209 17.4677L37.6215 17.4683C37.6205 17.4684 37.6194 17.4677 37.6184 17.4677L37.6164 17.4683V17.4677C37.5277 17.4679 37.4398 17.4514 37.3578 17.4174C37.2766 17.3837 37.2033 17.3336 37.1412 17.2715L37.1406 17.2721C37.1396 17.2712 37.139 17.2699 37.138 17.269C37.1371 17.268 37.1358 17.2674 37.1349 17.2664L37.1355 17.2658C37.0737 17.2041 37.0236 17.1316 36.9896 17.0511C36.9546 16.9681 36.9367 16.8788 36.9367 16.7886C36.9367 16.6985 36.9546 16.6092 36.9896 16.5262C37.0246 16.4432 37.0761 16.368 37.1406 16.3051L38.5051 14.9406V14.9413C38.5659 14.8781 38.6378 14.8266 38.7179 14.7909C38.8013 14.7538 38.8916 14.7339 38.9829 14.7323ZM37.2699 16.8581C37.2745 16.8807 37.2813 16.903 37.2903 16.9243C37.3084 16.9672 37.3353 17.0059 37.3686 17.0384C37.4011 17.0716 37.4397 17.0983 37.4827 17.1161C37.5256 17.1339 37.5719 17.1427 37.6184 17.1422C37.6415 17.1423 37.6646 17.1403 37.6872 17.1358L37.7534 17.1154C37.7963 17.0976 37.8354 17.0714 37.8681 17.0384L39.2358 15.6707C39.2531 15.6545 39.2692 15.637 39.2829 15.6178L39.318 15.556C39.3275 15.5344 39.3351 15.512 39.3402 15.4891L39.3485 15.4184C39.3489 15.3946 39.3471 15.3709 39.3428 15.3477L39.3224 15.2795C39.3136 15.2577 39.3029 15.2367 39.2899 15.2171L39.2447 15.1623C39.2279 15.1455 39.2096 15.1301 39.1899 15.1171L39.1275 15.0839C39.1055 15.0751 39.0825 15.0685 39.0593 15.0642L38.9886 15.0585C38.9412 15.0593 38.8943 15.0698 38.851 15.089L38.7892 15.1241C38.77 15.1378 38.7519 15.1538 38.7357 15.1712L37.3686 16.5389L37.3234 16.5918C37.3104 16.6109 37.2993 16.6315 37.2903 16.653L37.2699 16.7192C37.2653 16.742 37.2629 16.7653 37.2629 16.7886L37.2699 16.8581Z" fill="white"/>
<path d="M40.3112 18.2741H38.3776C38.2838 18.2741 38.1939 18.3114 38.1275 18.3777C38.0612 18.4441 38.0239 18.534 38.0239 18.6278C38.0239 18.7216 38.0612 18.8116 38.1275 18.8779C38.1939 18.9443 38.2838 18.9815 38.3776 18.9815H40.3112C40.405 18.9815 40.4949 18.9443 40.5613 18.8779C40.6276 18.8116 40.6648 18.7216 40.6648 18.6278C40.6648 18.534 40.6276 18.4441 40.5613 18.3777C40.4949 18.3114 40.405 18.2741 40.3112 18.2741Z" fill="white"/>
<path d="M37.6978 18.6277C37.6978 18.4474 37.7697 18.2748 37.8971 18.1474C38.0246 18.0199 38.1972 17.948 38.3775 17.948V18.2741C38.2837 18.2742 38.194 18.3117 38.1277 18.378L38.0832 18.4315C38.0447 18.4891 38.0239 18.5574 38.0239 18.6277L38.0309 18.6971C38.0445 18.7651 38.078 18.8283 38.1277 18.878C38.1774 18.9276 38.2402 18.9613 38.308 18.9749L38.3775 18.9812H40.3108C40.3813 18.9812 40.4499 18.9606 40.5077 18.922L40.5612 18.878C40.611 18.8283 40.6444 18.7651 40.658 18.6971L40.665 18.6277C40.665 18.5573 40.6437 18.4892 40.6052 18.4315L40.5612 18.378C40.5114 18.3282 40.4483 18.2947 40.3803 18.2811L40.3108 18.2741V17.948C40.4912 17.948 40.6643 18.0199 40.7918 18.1474C40.9192 18.2748 40.9912 18.4475 40.9912 18.6277C40.9912 18.808 40.9193 18.9812 40.7918 19.1086C40.6643 19.2361 40.4911 19.3074 40.3108 19.3074H38.3775C38.1973 19.3074 38.0246 19.236 37.8971 19.1086C37.7696 18.9812 37.6978 18.808 37.6978 18.6277ZM40.3108 17.948V18.2741H38.3775V17.948H40.3108Z" fill="white"/>
<path d="M37.8682 20.2265C37.8019 20.1603 37.712 20.1231 37.6183 20.1231C37.5246 20.1231 37.4347 20.1603 37.3683 20.2265C37.335 20.259 37.3085 20.2979 37.2903 20.3408C37.2722 20.3838 37.2629 20.4299 37.2629 20.4765C37.2629 20.5231 37.2722 20.5692 37.2903 20.6121C37.3085 20.655 37.335 20.6939 37.3683 20.7264L38.736 22.094C38.7681 22.1278 38.8069 22.1544 38.85 22.1723C38.893 22.1902 38.9393 22.1988 38.9859 22.1978C39.0324 22.198 39.0784 22.1889 39.1213 22.1711C39.1643 22.1533 39.2032 22.1271 39.2359 22.094C39.3021 22.0277 39.3393 21.9378 39.3393 21.8441C39.3393 21.7504 39.3021 21.6605 39.2359 21.5942L37.8682 20.2265Z" fill="white"/>
<path d="M36.9367 20.4766C36.9367 20.3866 36.9546 20.2972 36.9896 20.2142C37.0246 20.1312 37.0761 20.056 37.1406 19.9931C37.2678 19.8675 37.4395 19.7969 37.6184 19.7969C37.776 19.797 37.9281 19.8515 38.049 19.9505L38.0987 19.9957L39.4664 21.3634L39.5116 21.4137C39.6106 21.5346 39.6651 21.6867 39.6651 21.8443C39.6651 22.0239 39.5936 22.1954 39.467 22.3228L39.4677 22.3234C39.4046 22.3872 39.3295 22.438 39.2466 22.4725C39.1661 22.5059 39.0796 22.5228 38.9924 22.5234L38.9931 22.5241C38.9912 22.5241 38.9892 22.5234 38.9873 22.5234C38.9863 22.5234 38.9851 22.5241 38.9841 22.5241V22.5234C38.8953 22.5242 38.807 22.5078 38.7249 22.4737C38.6421 22.4394 38.5676 22.3882 38.5051 22.324V22.3247L37.1374 20.957L37.138 20.9563C37.075 20.8941 37.0241 20.8207 36.9896 20.7391C36.9546 20.6561 36.9368 20.5667 36.9367 20.4766ZM37.2699 20.5454C37.2745 20.5682 37.2812 20.5908 37.2903 20.6123C37.3084 20.6552 37.3353 20.6939 37.3686 20.7264L38.7357 22.0941C38.7678 22.1278 38.8068 22.1546 38.8497 22.1724C38.8928 22.1903 38.9395 22.199 38.9861 22.1979C39.0092 22.198 39.0323 22.196 39.0549 22.1915L39.1211 22.1711C39.164 22.1533 39.2031 22.1271 39.2358 22.0941C39.2855 22.0443 39.3191 21.9812 39.3326 21.9131L39.339 21.8443C39.339 21.774 39.3181 21.7058 39.2797 21.6481L39.2358 21.594L37.8681 20.2263C37.8184 20.1768 37.7555 20.1437 37.6878 20.1301L37.6184 20.1231C37.5248 20.1231 37.4349 20.1602 37.3686 20.2263L37.3234 20.2798C37.3104 20.2989 37.2993 20.3195 37.2903 20.341L37.2699 20.4072C37.2653 20.43 37.2629 20.4533 37.2629 20.4766L37.2699 20.5454Z" fill="white"/>
<path d="M33.7088 17.0386C33.7752 17.1048 33.865 17.142 33.9588 17.142C34.0525 17.142 34.1424 17.1048 34.2087 17.0386C34.275 16.9722 34.3122 16.8823 34.3122 16.7886C34.3122 16.6949 34.275 16.605 34.2087 16.5387L32.8411 15.171C32.8087 15.1363 32.7697 15.1084 32.7263 15.0891C32.6829 15.0698 32.6361 15.0594 32.5886 15.0585C32.5411 15.0577 32.4939 15.0664 32.4499 15.0842C32.4058 15.102 32.3658 15.1285 32.3322 15.1621C32.2986 15.1957 32.2722 15.2357 32.2544 15.2797C32.2366 15.3237 32.2279 15.3709 32.2287 15.4184C32.2295 15.4659 32.2399 15.5127 32.2593 15.5561C32.2786 15.5995 32.3065 15.6386 32.3412 15.6709L33.7088 17.0386Z" fill="white"/>
<path d="M34.3124 16.7886C34.3124 16.6949 34.2747 16.6052 34.2085 16.5389L32.8408 15.1712C32.8246 15.1539 32.8072 15.1378 32.7879 15.1241L32.7262 15.089C32.7046 15.0794 32.6822 15.0719 32.6593 15.0668L32.5886 15.0585C32.5411 15.0576 32.4937 15.0662 32.4497 15.084L32.3873 15.1171C32.3675 15.1301 32.3493 15.1455 32.3325 15.1623L32.2872 15.2171C32.2743 15.2367 32.263 15.2576 32.2541 15.2795L32.2344 15.3477C32.2301 15.3709 32.2282 15.3946 32.2286 15.4184C32.2295 15.4658 32.2399 15.5126 32.2592 15.556C32.2785 15.5994 32.3067 15.6383 32.3414 15.6707L33.7091 17.0384C33.7588 17.088 33.8215 17.1216 33.8894 17.1352L33.9588 17.1422C34.0291 17.1422 34.0974 17.1213 34.155 17.0829L34.2085 17.0384C34.2582 16.9887 34.2918 16.9259 34.3054 16.8581L34.3124 16.7886ZM34.6385 16.7886C34.6385 16.9687 34.567 17.1415 34.4398 17.269L34.4391 17.2696C34.3117 17.3968 34.1389 17.4683 33.9588 17.4684C33.7787 17.4684 33.6059 17.3968 33.4785 17.2696V17.269L32.1108 15.9013L32.1114 15.9006C32.0486 15.84 31.9967 15.7689 31.9611 15.6891C31.9239 15.6057 31.9041 15.5154 31.9025 15.4241C31.9009 15.3329 31.918 15.2424 31.9522 15.1578C31.9864 15.0732 32.0373 14.9963 32.1019 14.9317C32.1664 14.8671 32.2434 14.8162 32.328 14.782C32.4126 14.7479 32.5031 14.7307 32.5943 14.7323C32.6856 14.7339 32.7759 14.7538 32.8593 14.7909C32.9391 14.8265 33.0108 14.8778 33.0714 14.9406L34.4391 16.3083H34.4398L34.4844 16.358C34.5834 16.479 34.6385 16.6309 34.6385 16.7886Z" fill="white"/>
<path d="M183.075 25.8906C182.133 25.8906 181.404 26.1423 180.886 26.6458C180.388 27.1319 180.074 27.9219 179.945 29.0156C179.945 29.1545 180.018 29.2239 180.166 29.2239H185.596C185.744 29.2239 185.818 29.1545 185.818 29.0156C185.744 26.9323 184.83 25.8906 183.075 25.8906ZM183.768 37.5312C181.348 37.5312 179.483 36.941 178.171 35.7604C176.879 34.5625 176.232 32.809 176.232 30.5C176.232 28.2083 176.814 26.4635 177.977 25.2656C179.141 24.0677 180.822 23.4687 183.02 23.4687C187.12 23.4687 189.226 25.6562 189.336 30.0312C189.355 30.4479 189.198 30.7951 188.865 31.0729C188.533 31.3507 188.145 31.4896 187.702 31.4896H180.138C179.972 31.4896 179.908 31.5677 179.945 31.7239C180.074 32.8871 180.48 33.7378 181.164 34.276C181.865 34.7969 182.881 35.0573 184.211 35.0573C185.042 35.0573 185.966 34.9271 186.982 34.6667C187.314 34.5798 187.619 34.6319 187.896 34.8229C188.191 35.0139 188.339 35.2743 188.339 35.6042C188.339 36.0035 188.21 36.3594 187.951 36.6719C187.711 36.967 187.388 37.1493 186.982 37.2187C185.947 37.4271 184.876 37.5312 183.768 37.5312Z" fill="#747474"/>
<path d="M165.875 37.271C165.451 37.271 165.081 37.1234 164.767 36.8283C164.453 36.5331 164.296 36.1859 164.296 35.7866V25.2137C164.296 24.8144 164.453 24.4672 164.767 24.172C165.081 23.8769 165.451 23.7293 165.875 23.7293H166.43C166.854 23.7293 167.224 23.8769 167.538 24.172C167.852 24.4672 168.009 24.8144 168.009 25.2137V26.3074C168.009 26.3248 168.018 26.3335 168.036 26.3335C168.073 26.3335 168.092 26.3248 168.092 26.3074C168.627 25.613 169.329 25.0488 170.197 24.6147C171.065 24.1633 172.017 23.8856 173.051 23.7814C173.439 23.7467 173.771 23.8682 174.048 24.146C174.325 24.4064 174.464 24.7189 174.464 25.0835C174.464 25.4481 174.325 25.7606 174.048 26.021C173.771 26.2814 173.439 26.429 173.051 26.4637C169.782 26.7067 168.147 28.2692 168.147 31.1512V35.7866C168.147 36.1859 167.99 36.5331 167.676 36.8283C167.362 37.1234 166.993 37.271 166.568 37.271H165.875Z" fill="#747474"/>
<path d="M152.443 37.5314C150.818 37.5314 149.636 37.1147 148.897 36.2814C148.158 35.4307 147.789 33.9984 147.789 31.9845V25.2137C147.789 24.8144 147.946 24.4672 148.26 24.172C148.574 23.8769 148.943 23.7293 149.368 23.7293H149.812C150.236 23.7293 150.606 23.8769 150.92 24.172C151.234 24.4672 151.391 24.8144 151.391 25.2137V31.6199C151.391 32.8352 151.566 33.6772 151.917 34.146C152.268 34.6147 152.859 34.8491 153.69 34.8491C154.447 34.8491 155.149 34.5453 155.796 33.9377C156.461 33.33 156.793 32.679 156.793 31.9845V25.2137C156.793 24.8144 156.95 24.4672 157.264 24.172C157.578 23.8769 157.948 23.7293 158.372 23.7293H158.926C159.351 23.7293 159.711 23.8769 160.007 24.172C160.321 24.4672 160.478 24.8144 160.478 25.2137V35.7866C160.478 36.1859 160.321 36.5331 160.007 36.8283C159.711 37.1234 159.351 37.271 158.926 37.271H158.566C158.123 37.271 157.744 37.1321 157.43 36.8543C157.135 36.5592 156.978 36.2033 156.959 35.7866L156.932 35.6043C156.932 35.587 156.922 35.5783 156.904 35.5783C156.886 35.5783 156.867 35.587 156.849 35.6043C155.593 36.889 154.124 37.5314 152.443 37.5314Z" fill="#747474"/>
<path d="M134.063 26.7761C133.694 26.7761 133.38 26.6545 133.121 26.4115C132.863 26.1511 132.733 25.8472 132.733 25.5C132.733 25.1528 132.863 24.8577 133.121 24.6146C133.38 24.3715 133.694 24.25 134.063 24.25H135.393C135.559 24.25 135.642 24.1719 135.642 24.0156V20.7865C135.642 20.3872 135.79 20.0399 136.086 19.7448C136.399 19.4497 136.769 19.3021 137.194 19.3021H137.748C138.173 19.3021 138.542 19.4497 138.856 19.7448C139.17 20.0399 139.327 20.3872 139.327 20.7865V24.0156C139.327 24.1719 139.41 24.25 139.576 24.25H142.735C143.104 24.25 143.418 24.3715 143.677 24.6146C143.954 24.8577 144.092 25.1528 144.092 25.5C144.092 25.8472 143.954 26.1511 143.677 26.4115C143.418 26.6545 143.104 26.7761 142.735 26.7761H139.576C139.41 26.7761 139.327 26.8455 139.327 26.9844V32.2448C139.327 33.3733 139.456 34.1025 139.715 34.4323C139.973 34.7622 140.509 34.9271 141.322 34.9271C141.765 34.9271 142.097 34.9098 142.319 34.875C142.689 34.8403 143.012 34.9184 143.289 35.1094C143.566 35.3004 143.704 35.5608 143.704 35.8907C143.704 36.2726 143.566 36.6198 143.289 36.9323C143.03 37.2275 142.707 37.3924 142.319 37.4271C141.506 37.4966 140.897 37.5313 140.491 37.5313C138.699 37.5313 137.443 37.1754 136.723 36.4636C136.002 35.7344 135.642 34.441 135.642 32.5834V26.9844C135.642 26.8455 135.559 26.7761 135.393 26.7761H134.063Z" fill="#747474"/>
<path d="M120.714 28.7291V32.2708C120.714 32.9653 121.028 33.5816 121.656 34.1198C122.303 34.658 123.051 34.9271 123.9 34.9271C124.879 34.9271 125.655 34.5538 126.228 33.8073C126.8 33.0607 127.086 31.9583 127.086 30.5C127.086 27.5486 126.024 26.0729 123.9 26.0729C123.051 26.0729 122.303 26.342 121.656 26.8802C121.028 27.4184 120.714 28.0347 120.714 28.7291ZM118.636 43C118.212 43 117.842 42.8524 117.528 42.5573C117.214 42.2621 117.057 41.9149 117.057 41.5156V25.2135C117.057 24.8142 117.214 24.467 117.528 24.1718C117.842 23.8767 118.212 23.7291 118.636 23.7291H118.969C119.412 23.7291 119.791 23.8767 120.105 24.1718C120.419 24.4496 120.585 24.7968 120.603 25.2135V25.3958C120.603 25.4132 120.613 25.4218 120.631 25.4218C120.65 25.4218 120.668 25.4132 120.687 25.3958C121.352 24.7014 122.016 24.2066 122.681 23.9114C123.346 23.6163 124.122 23.4687 125.009 23.4687C126.745 23.4687 128.13 24.085 129.164 25.3177C130.199 26.533 130.716 28.2604 130.716 30.5C130.716 32.6701 130.171 34.3889 129.081 35.6562C128.01 36.9062 126.652 37.5312 125.009 37.5312C123.402 37.5312 122.007 36.9844 120.825 35.8906C120.807 35.8732 120.788 35.8646 120.77 35.8646C120.751 35.8646 120.742 35.8732 120.742 35.8906V41.5156C120.742 41.9149 120.585 42.2621 120.271 42.5573C119.975 42.8524 119.615 43 119.191 43H118.636Z" fill="#747474"/>
<path d="M107.807 25.8906C106.865 25.8906 106.135 26.1423 105.618 26.6458C105.119 27.1319 104.805 27.9219 104.676 29.0156C104.676 29.1545 104.75 29.2239 104.898 29.2239H110.328C110.476 29.2239 110.549 29.1545 110.549 29.0156C110.476 26.9323 109.561 25.8906 107.807 25.8906ZM108.499 37.5312C106.08 37.5312 104.214 36.941 102.903 35.7604C101.61 34.5625 100.964 32.809 100.964 30.5C100.964 28.2083 101.545 26.4635 102.709 25.2656C103.873 24.0677 105.553 23.4687 107.751 23.4687C111.852 23.4687 113.957 25.6562 114.068 30.0312C114.086 30.4479 113.929 30.7951 113.597 31.0729C113.264 31.3507 112.877 31.4896 112.433 31.4896H104.87C104.704 31.4896 104.639 31.5677 104.676 31.7239C104.805 32.8871 105.212 33.7378 105.895 34.276C106.597 34.7969 107.613 35.0573 108.943 35.0573C109.774 35.0573 110.697 34.9271 111.713 34.6667C112.045 34.5798 112.35 34.6319 112.627 34.8229C112.923 35.0139 113.071 35.2743 113.071 35.6042C113.071 36.0035 112.941 36.3594 112.683 36.6719C112.443 36.967 112.119 37.1493 111.713 37.2187C110.679 37.4271 109.607 37.5312 108.499 37.5312Z" fill="#747474"/>
<path d="M88.3392 26.7761C87.9698 26.7761 87.6558 26.6545 87.3972 26.4115C87.1387 26.1511 87.0094 25.8472 87.0094 25.5C87.0094 25.1528 87.1387 24.8577 87.3972 24.6146C87.6558 24.3715 87.9698 24.25 88.3392 24.25H89.669C89.8353 24.25 89.9184 24.1719 89.9184 24.0156V20.7865C89.9184 20.3872 90.0661 20.0399 90.3617 19.7448C90.6756 19.4497 91.045 19.3021 91.4699 19.3021H92.024C92.4488 19.3021 92.8182 19.4497 93.1321 19.7448C93.4461 20.0399 93.6031 20.3872 93.6031 20.7865V24.0156C93.6031 24.1719 93.6862 24.25 93.8525 24.25H97.0108C97.3802 24.25 97.6942 24.3715 97.9528 24.6146C98.2298 24.8577 98.3684 25.1528 98.3684 25.5C98.3684 25.8472 98.2298 26.1511 97.9528 26.4115C97.6942 26.6545 97.3802 26.7761 97.0108 26.7761H93.8525C93.6862 26.7761 93.6031 26.8455 93.6031 26.9844V32.2448C93.6031 33.3733 93.7324 34.1025 93.991 34.4323C94.2496 34.7622 94.7852 34.9271 95.5979 34.9271C96.0412 34.9271 96.3736 34.9098 96.5953 34.875C96.9647 34.8403 97.2879 34.9184 97.5649 35.1094C97.842 35.3004 97.9805 35.5608 97.9805 35.8907C97.9805 36.2726 97.842 36.6198 97.5649 36.9323C97.3064 37.2275 96.9831 37.3924 96.5953 37.4271C95.7826 37.4966 95.1731 37.5313 94.7667 37.5313C92.9752 37.5313 91.7192 37.1754 90.9989 36.4636C90.2785 35.7344 89.9184 34.441 89.9184 32.5834V26.9844C89.9184 26.8455 89.8353 26.7761 89.669 26.7761H88.3392Z" fill="#747474"/>
<path d="M78.289 29.25C76.0726 28.5556 74.4657 27.7136 73.4684 26.724C72.4895 25.7344 72 24.5365 72 23.1302C72 21.5504 72.5633 20.3003 73.69 19.3802C74.8167 18.4601 76.3958 18 78.4275 18C80.1452 18 81.6413 18.1823 82.9157 18.5469C83.359 18.6684 83.7099 18.9201 83.9685 19.3021C84.2456 19.6667 84.3841 20.0747 84.3841 20.526V20.7604C84.3841 21.0903 84.2271 21.3507 83.9131 21.5417C83.5991 21.7153 83.2759 21.7413 82.9434 21.6198C81.5582 21.1163 80.1452 20.8646 78.7046 20.8646C77.7811 20.8646 77.0792 21.0642 76.599 21.4635C76.1188 21.8629 75.8787 22.4184 75.8787 23.1302C75.8787 24.3802 76.7468 25.2743 78.4829 25.8125C80.9764 26.559 82.7033 27.4097 83.6638 28.3646C84.6427 29.3195 85.1321 30.5521 85.1321 32.0625C85.1321 35.7084 82.7403 37.5313 77.9566 37.5313C76.4605 37.5313 75.1029 37.3143 73.8839 36.8802C73.4407 36.724 73.0897 36.4549 72.8311 36.0729C72.591 35.691 72.471 35.2656 72.471 34.7969V34.4844C72.471 34.1545 72.6187 33.9202 72.9143 33.7813C73.2098 33.625 73.5145 33.6163 73.8285 33.7552C75.0475 34.3281 76.3312 34.6146 77.6795 34.6146C80.0252 34.6146 81.198 33.7813 81.198 32.1146C81.198 31.4375 80.9764 30.882 80.5331 30.4479C80.0898 29.9965 79.3418 29.5972 78.289 29.25Z" fill="#747474"/>
<defs>
<linearGradient id="paint0_linear_236_2972" x1="31" y1="0" x2="31" y2="62" gradientUnits="userSpaceOnUse">
<stop stop-color="#96C8FE"/>
<stop offset="1" stop-color="#8EACFE"/>
</linearGradient>
</defs>
</svg>
